<svg version="1.1" id="Layer_1" xmlns="http://www.w3.org/2000/svg" xmlns:xlink="http://www.w3.org/1999/xlink" x="0px" y="0px"
	 width="100%" viewBox="0 0 454 459" enable-background="new 0 0 454 459" xml:space="preserve">
<path fill="#FFFFFE" opacity="1.000000" stroke="none" 
	d="
M4.000000,1.000000 
	C154.262360,1.000000 304.524719,1.000000 455.000000,1.000000 
	C455.000000,152.690674 455.000000,304.381470 454.531342,456.536133 
	C306.294647,457.000000 158.526627,457.000122 10.758607,456.999573 
	C4.003850,456.999542 4.000452,456.996765 4.000424,450.301422 
	C3.999805,300.534271 3.999975,150.767136 4.000000,1.000000 
M329.449310,171.936462 
	C285.500854,186.373322 246.822968,210.097916 211.239105,239.514389 
	C211.090652,237.921143 211.450577,236.875336 211.718307,235.806427 
	C214.379913,225.180084 218.085999,214.682770 219.438599,203.891006 
	C221.694412,185.892944 215.548599,171.709412 192.091003,173.899307 
	C177.502396,175.261246 164.390717,181.014450 151.784409,187.869141 
	C115.537422,207.578476 83.694435,233.294373 53.569664,261.206451 
	C45.298870,268.869720 37.822247,277.403656 30.185982,285.725983 
	C28.794695,287.242249 28.395855,289.669189 27.445465,291.894440 
	C32.436283,292.610931 34.802044,291.803192 41.298145,287.078003 
	C71.682304,264.976746 103.601631,245.484818 138.264435,230.813751 
	C149.997437,225.847763 162.152573,221.879120 175.266769,217.028625 
	C174.814621,220.295593 174.875183,222.137650 174.287354,223.742172 
	C169.823700,235.926102 165.424576,248.139572 160.635132,260.196777 
	C154.249023,276.273529 146.852661,291.985626 141.250854,308.320953 
	C138.636948,315.943359 138.127731,324.729675 138.631744,332.866547 
	C139.253189,342.899139 144.737518,345.294250 153.359268,339.878082 
	C160.370178,335.473877 167.039001,330.364197 173.251877,324.879150 
	C196.691559,304.185242 218.816986,282.029999 245.333832,264.917572 
	C268.581024,249.915192 291.376831,234.291412 317.582031,224.674774 
	C337.326843,217.428970 357.482452,214.014252 378.342621,218.789749 
	C397.302765,223.130249 404.891235,232.840271 405.042175,252.285034 
	C405.065674,255.311676 405.045410,258.338654 405.045410,263.017090 
	C410.883118,257.294037 415.877991,252.931335 420.246643,248.012466 
	C432.475739,234.243011 440.239227,218.685028 439.059204,199.576202 
	C438.010620,182.596008 430.106323,171.360123 414.030487,165.849762 
	C408.578430,163.980942 402.750183,162.783157 397.005280,162.270279 
	C374.047241,160.220566 351.949890,164.852844 329.449310,171.936462 
M295.225861,330.795898 
	C316.308838,323.616913 337.454163,316.602936 356.966858,305.565918 
	C366.132355,300.381592 375.007446,294.779236 381.820831,286.612152 
	C390.157318,276.619415 387.971832,268.184662 375.639313,265.119354 
	C372.614014,264.367401 369.411194,264.047607 366.286499,264.025665 
	C351.960388,263.924866 337.633057,264.009857 323.306152,263.999573 
	C321.637726,263.998383 319.969391,263.820160 318.301025,263.723999 
	C318.156372,263.158081 318.011719,262.592163 317.867065,262.026276 
	C320.342773,260.606506 322.668762,258.752869 325.318787,257.838135 
	C341.232330,252.345337 357.633911,249.191650 374.427216,247.939835 
	C376.353851,247.796219 378.195953,246.518021 381.017731,245.389877 
	C373.547913,239.210129 365.788818,239.533005 358.538025,239.147827 
	C338.587250,238.087952 319.432312,242.318451 301.589905,251.006180 
	C291.519836,255.909424 281.883789,262.081024 272.995667,268.909363 
	C266.491516,273.906189 267.998444,278.334442 275.877319,280.841614 
	C289.311310,285.116455 303.194519,286.028503 317.180542,286.054230 
	C318.953247,286.057495 320.725616,286.231445 322.498138,286.326324 
	C320.944458,288.068512 319.443359,288.786896 317.860809,289.134125 
	C301.199249,292.789642 284.589935,296.736633 267.826752,299.853149 
	C259.234711,301.450531 250.373459,301.763824 241.611130,302.230927 
	C234.347366,302.618164 227.026749,302.744019 219.777374,302.274445 
	C215.834152,302.019012 213.033691,302.578125 209.959183,305.359406 
	C197.283707,316.826019 184.319717,327.976227 171.356155,339.119843 
	C168.585938,341.501129 165.374252,343.368896 162.365936,345.473236 
	C207.830154,351.531921 251.399429,343.554840 295.225861,330.795898 
M243.939468,185.744186 
	C251.801880,188.393600 259.694214,188.328293 267.453644,185.533920 
	C290.483978,177.240051 301.162048,148.471283 289.384735,126.698090 
	C281.308228,111.766724 265.745148,104.198654 250.124329,107.606384 
	C233.659973,111.198143 220.698914,126.061096 219.049606,143.240997 
	C217.189117,162.620728 226.160797,178.302689 243.939468,185.744186 
z"/>
<path fill="#F1F1F3" opacity="1.000000" stroke="none" 
	d="
M3.500000,1.000000 
	C3.999975,150.767136 3.999805,300.534271 4.000424,450.301422 
	C4.000452,456.996765 4.003850,456.999542 10.758607,456.999573 
	C158.526627,457.000122 306.294647,457.000000 454.531342,457.000000 
	C454.951935,458.654388 455.621460,460.871704 452.493439,460.024261 
	C451.872345,459.856018 451.166656,460.000000 450.500000,460.000000 
	C300.666656,460.000000 150.833328,460.000000 1.000000,460.000000 
	C1.000000,308.333344 0.994004,156.666672 1.102876,5.000074 
	C1.103775,3.747483 -0.962960,0.685187 3.500000,1.000000 
z"/>
<path fill="#EF8732" opacity="1.000000" stroke="none" 
	d="
M329.823730,171.807602 
	C351.949890,164.852844 374.047241,160.220566 397.005280,162.270279 
	C402.750183,162.783157 408.578430,163.980942 414.030487,165.849762 
	C430.106323,171.360123 438.010620,182.596008 439.059204,199.576202 
	C440.239227,218.685028 432.475739,234.243011 420.246643,248.012466 
	C415.877991,252.931335 410.883118,257.294037 405.045410,263.017090 
	C405.045410,258.338654 405.065674,255.311676 405.042175,252.285034 
	C404.891235,232.840271 397.302765,223.130249 378.342621,218.789749 
	C357.482452,214.014252 337.326843,217.428970 317.582031,224.674774 
	C291.376831,234.291412 268.581024,249.915192 245.333832,264.917572 
	C218.816986,282.029999 196.691559,304.185242 173.251877,324.879150 
	C167.039001,330.364197 160.370178,335.473877 153.359268,339.878082 
	C144.737518,345.294250 139.253189,342.899139 138.631744,332.866547 
	C138.127731,324.729675 138.636948,315.943359 141.250854,308.320953 
	C146.852661,291.985626 154.249023,276.273529 160.635132,260.196777 
	C165.424576,248.139572 169.823700,235.926102 174.287354,223.742172 
	C174.875183,222.137650 174.814621,220.295593 175.266769,217.028625 
	C162.152573,221.879120 149.997437,225.847763 138.264435,230.813751 
	C103.601631,245.484818 71.682304,264.976746 41.298145,287.078003 
	C34.802044,291.803192 32.436283,292.610931 27.445465,291.894440 
	C28.395855,289.669189 28.794695,287.242249 30.185982,285.725983 
	C37.822247,277.403656 45.298870,268.869720 53.569664,261.206451 
	C83.694435,233.294373 115.537422,207.578476 151.784409,187.869141 
	C164.390717,181.014450 177.502396,175.261246 192.091003,173.899307 
	C215.548599,171.709412 221.694412,185.892944 219.438599,203.891006 
	C218.085999,214.682770 214.379913,225.180084 211.718307,235.806427 
	C211.450577,236.875336 211.090652,237.921143 211.239105,239.514389 
	C246.822968,210.097916 285.500854,186.373322 329.823730,171.807602 
M210.558594,240.088074 
	C210.459518,240.193634 210.284866,240.297668 210.282684,240.405212 
	C210.280518,240.512131 210.451706,240.622559 210.546875,240.731430 
	C210.646332,240.626221 210.745789,240.521011 210.558594,240.088074 
z"/>
<path fill="#D2D2D2" opacity="1.000000" stroke="none" 
	d="
M294.837097,330.894745 
	C251.399429,343.554840 207.830154,351.531921 162.365936,345.473236 
	C165.374252,343.368896 168.585938,341.501129 171.356155,339.119843 
	C184.319717,327.976227 197.283707,316.826019 209.959183,305.359406 
	C213.033691,302.578125 215.834152,302.019012 219.777374,302.274445 
	C227.026749,302.744019 234.347366,302.618164 241.611130,302.230927 
	C250.373459,301.763824 259.234711,301.450531 267.826752,299.853149 
	C284.589935,296.736633 301.199249,292.789642 317.860809,289.134125 
	C319.443359,288.786896 320.944458,288.068512 322.498138,286.326324 
	C320.725616,286.231445 318.953247,286.057495 317.180542,286.054230 
	C303.194519,286.028503 289.311310,285.116455 275.877319,280.841614 
	C267.998444,278.334442 266.491516,273.906189 272.995667,268.909363 
	C281.883789,262.081024 291.519836,255.909424 301.589905,251.006180 
	C319.432312,242.318451 338.587250,238.087952 358.538025,239.147827 
	C365.788818,239.533005 373.547913,239.210129 381.017731,245.389877 
	C378.195953,246.518021 376.353851,247.796219 374.427216,247.939835 
	C357.633911,249.191650 341.232330,252.345337 325.318787,257.838135 
	C322.668762,258.752869 320.342773,260.606506 317.867065,262.026276 
	C318.011719,262.592163 318.156372,263.158081 318.301025,263.723999 
	C319.969391,263.820160 321.637726,263.998383 323.306152,263.999573 
	C337.633057,264.009857 351.960388,263.924866 366.286499,264.025665 
	C369.411194,264.047607 372.614014,264.367401 375.639313,265.119354 
	C387.971832,268.184662 390.157318,276.619415 381.820831,286.612152 
	C375.007446,294.779236 366.132355,300.381592 356.966858,305.565918 
	C337.454163,316.602936 316.308838,323.616913 294.837097,330.894745 
z"/>
<path fill="#EF8732" opacity="1.000000" stroke="none" 
	d="
M243.570709,185.601013 
	C226.160797,178.302689 217.189117,162.620728 219.049606,143.240997 
	C220.698914,126.061096 233.659973,111.198143 250.124329,107.606384 
	C265.745148,104.198654 281.308228,111.766724 289.384735,126.698090 
	C301.162048,148.471283 290.483978,177.240051 267.453644,185.533920 
	C259.694214,188.328293 251.801880,188.393600 243.570709,185.601013 
z"/>
<path fill="#FFFFFE" opacity="1.000000" stroke="none" 
	d="
M210.701935,240.251938 
	C210.745789,240.521011 210.646332,240.626221 210.546875,240.731430 
	C210.451706,240.622559 210.280518,240.512131 210.282684,240.405212 
	C210.284866,240.297668 210.459518,240.193634 210.701935,240.251938 
z"/>
</svg>